<svg id="visual" viewBox="0 0 960 180" width="960" height="180" xmlns="http://www.w3.org/2000/svg" xmlns:xlink="http://www.w3.org/1999/xlink" version="1.1"><rect x="0" y="0" width="960" height="180" fill="#fff5df"></rect><path d="M0 129L87 78L175 102L262 147L349 61L436 143L524 108L611 55L698 102L785 32L873 130L960 113L960 0L873 0L785 0L698 0L611 0L524 0L436 0L349 0L262 0L175 0L87 0L0 0Z" fill="#dba426"></path><path d="M0 28L87 111L175 103L262 92L349 112L436 112L524 89L611 112L698 104L785 90L873 72L960 34L960 0L873 0L785 0L698 0L611 0L524 0L436 0L349 0L262 0L175 0L87 0L0 0Z" fill="#a3602c"></path><path d="M0 40L87 72L175 19L262 35L349 44L436 23L524 80L611 64L698 70L785 19L873 33L960 36L960 0L873 0L785 0L698 0L611 0L524 0L436 0L349 0L262 0L175 0L87 0L0 0Z" fill="#592d22"></path><path d="M0 49L87 18L175 53L262 44L349 49L436 29L524 54L611 41L698 57L785 35L873 49L960 44L960 0L873 0L785 0L698 0L611 0L524 0L436 0L349 0L262 0L175 0L87 0L0 0Z" fill="#0b0000"></path></svg>